<svg xmlns="http://www.w3.org/2000/svg" viewBox="0 0 200 200" width="200" height="200">
  <rect width="200" height="200" fill="#0A0A09"/>
  
  <!-- spiral tail going down-left -->
  <path d="M 98.00 140.00 L 97.63 139.53 L 97.39 138.92 L 97.31 138.20 L 97.42 137.42 L 97.74 136.62 L 98.29 135.87 L 99.05 135.21 L 100.00 134.70 L 101.11 134.40 L 102.34 134.34 L 103.63 134.56 L 104.91 135.09 L 106.12 135.91 L 107.18 137.02 L 108.03 138.40 L 108.60 140.00 L 108.84 141.76 L 108.71 143.61 L 108.18 145.47 L 107.25 147.25 L 105.92 148.87 L 104.24 150.23 L 102.24 151.27 L 100.00 151.90 L 97.60 152.08 L 95.13 151.76 L 92.70 150.92 L 90.42 149.58 L 88.39 147.76 L 86.72 145.50 L 85.50 142.88 L 84.80 140.00 L 84.69 136.95 L 85.19 133.87 L 86.33 130.87 L 88.09 128.09 L 90.41 125.65 L 93.24 123.67 L 96.47 122.26 L 100.00 121.50 L 103.69 121.45 L 107.40 122.15 L 110.97 123.59 L 114.25 125.75 L 117.10 128.58 L 119.38 131.97 L 120.98 135.83 L 121.80 140.00 L 121.79 144.33 L 120.90 148.66 L 119.15 152.80 L 116.58 156.58 L 113.26 159.84 L 109.29 162.43 L 104.82 164.21 L 100.00 165.10 L 95.02 165.02 L 90.08 163.95 L 85.37 161.90 L 81.08 158.92 L 77.42 155.09 L 74.52 150.55 L 72.55 145.46 L 71.60 140.00 L 71.74 134.38 L 73.00 128.82 L 75.36 123.53 L 78.75 118.75 L 83.08 114.67 L 88.18 111.48 L 93.90 109.31 L 100.00 108.30 L 106.26 108.50 L 112.45 109.95 L 118.30 112.61 L 123.58 116.42 L 128.07 121.24 L 131.57 126.92 L 133.92 133.25 L 135.00 140.00" stroke="#C9A84C" stroke-width="3" fill="none" stroke-linecap="round"/>
  <!-- left wing -->
  <polygon points="85,95 40,75 55,108" fill="#C9A84C"/>
  <!-- right wing -->
  <polygon points="115,95 160,75 145,108" fill="#C9A84C"/>
  <!-- body circle -->
  <circle cx="100" cy="94" r="22" fill="#C9A84C"/>
  <!-- eye dot -->
  <circle cx="100" cy="90" r="6" fill="#0A0A09"/>

</svg>