<svg xmlns="http://www.w3.org/2000/svg" viewBox="0 0 200 200" width="200" height="200">
  <rect width="200" height="200" fill="#0A0A09"/>
  
  <line x1="100.00" y1="68.00" x2="100.00" y2="12.00" stroke="#C9A84C" stroke-width="3" stroke-linecap="round"/><line x1="112.25" y1="70.44" x2="127.94" y2="32.56" stroke="#C9A84C" stroke-width="2" stroke-linecap="round"/><line x1="122.63" y1="77.37" x2="162.23" y2="37.77" stroke="#C9A84C" stroke-width="3" stroke-linecap="round"/><line x1="129.56" y1="87.75" x2="167.44" y2="72.06" stroke="#C9A84C" stroke-width="2" stroke-linecap="round"/><line x1="132.00" y1="100.00" x2="188.00" y2="100.00" stroke="#C9A84C" stroke-width="3" stroke-linecap="round"/><line x1="129.56" y1="112.25" x2="167.44" y2="127.94" stroke="#C9A84C" stroke-width="2" stroke-linecap="round"/><line x1="122.63" y1="122.63" x2="162.23" y2="162.23" stroke="#C9A84C" stroke-width="3" stroke-linecap="round"/><line x1="112.25" y1="129.56" x2="127.94" y2="167.44" stroke="#C9A84C" stroke-width="2" stroke-linecap="round"/><line x1="100.00" y1="132.00" x2="100.00" y2="188.00" stroke="#C9A84C" stroke-width="3" stroke-linecap="round"/><line x1="87.75" y1="129.56" x2="72.06" y2="167.44" stroke="#C9A84C" stroke-width="2" stroke-linecap="round"/><line x1="77.37" y1="122.63" x2="37.77" y2="162.23" stroke="#C9A84C" stroke-width="3" stroke-linecap="round"/><line x1="70.44" y1="112.25" x2="32.56" y2="127.94" stroke="#C9A84C" stroke-width="2" stroke-linecap="round"/><line x1="68.00" y1="100.00" x2="12.00" y2="100.00" stroke="#C9A84C" stroke-width="3" stroke-linecap="round"/><line x1="70.44" y1="87.75" x2="32.56" y2="72.06" stroke="#C9A84C" stroke-width="2" stroke-linecap="round"/><line x1="77.37" y1="77.37" x2="37.77" y2="37.77" stroke="#C9A84C" stroke-width="3" stroke-linecap="round"/><line x1="87.75" y1="70.44" x2="72.06" y2="32.56" stroke="#C9A84C" stroke-width="2" stroke-linecap="round"/>
  <circle cx="100" cy="100" r="30" fill="#C9A84C"/>
  <circle cx="100" cy="100" r="18" fill="#0A0A09"/>
  <circle cx="100" cy="100" r="8" fill="#C9A84C"/>

</svg>