<svg xmlns="http://www.w3.org/2000/svg" viewBox="0 0 200 200" width="200" height="200">
  <rect width="200" height="200" fill="#0A0A09"/>
  
  <line x1="100" y1="100" x2="100.00" y2="18.00" stroke="#C9A84C" stroke-width="6" stroke-linecap="round"/><polygon points="100.00,18.00 104.00,26.00 100.00,26.00 96.00,26.00" fill="#C9A84C"/><line x1="114.76" y1="63.10" x2="85.24" y2="63.10" stroke="#C9A84C" stroke-width="4.199999999999999" stroke-linecap="round"/><line x1="114.76" y1="42.60" x2="85.24" y2="42.60" stroke="#C9A84C" stroke-width="4.199999999999999" stroke-linecap="round"/><line x1="100" y1="100" x2="171.01" y2="59.00" stroke="#C9A84C" stroke-width="6" stroke-linecap="round"/><polygon points="171.01,59.00 166.09,66.46 164.09,63.00 162.09,59.54" fill="#C9A84C"/><line x1="139.34" y1="94.33" x2="124.58" y2="68.77" stroke="#C9A84C" stroke-width="4.199999999999999" stroke-linecap="round"/><line x1="157.09" y1="84.08" x2="142.33" y2="58.52" stroke="#C9A84C" stroke-width="4.199999999999999" stroke-linecap="round"/><line x1="100" y1="100" x2="171.01" y2="141.00" stroke="#C9A84C" stroke-width="6" stroke-linecap="round"/><polygon points="171.01,141.00 162.09,140.46 164.09,137.00 166.09,133.54" fill="#C9A84C"/><line x1="124.58" y1="131.23" x2="139.34" y2="105.67" stroke="#C9A84C" stroke-width="4.199999999999999" stroke-linecap="round"/><line x1="142.33" y1="141.48" x2="157.09" y2="115.92" stroke="#C9A84C" stroke-width="4.199999999999999" stroke-linecap="round"/><line x1="100" y1="100" x2="100.00" y2="182.00" stroke="#C9A84C" stroke-width="6" stroke-linecap="round"/><polygon points="100.00,182.00 96.00,174.00 100.00,174.00 104.00,174.00" fill="#C9A84C"/><line x1="85.24" y1="136.90" x2="114.76" y2="136.90" stroke="#C9A84C" stroke-width="4.199999999999999" stroke-linecap="round"/><line x1="85.24" y1="157.40" x2="114.76" y2="157.40" stroke="#C9A84C" stroke-width="4.199999999999999" stroke-linecap="round"/><line x1="100" y1="100" x2="28.99" y2="141.00" stroke="#C9A84C" stroke-width="6" stroke-linecap="round"/><polygon points="28.99,141.00 33.91,133.54 35.91,137.00 37.91,140.46" fill="#C9A84C"/><line x1="60.66" y1="105.67" x2="75.42" y2="131.23" stroke="#C9A84C" stroke-width="4.199999999999999" stroke-linecap="round"/><line x1="42.91" y1="115.92" x2="57.67" y2="141.48" stroke="#C9A84C" stroke-width="4.199999999999999" stroke-linecap="round"/><line x1="100" y1="100" x2="28.99" y2="59.00" stroke="#C9A84C" stroke-width="6" stroke-linecap="round"/><polygon points="28.99,59.00 37.91,59.54 35.91,63.00 33.91,66.46" fill="#C9A84C"/><line x1="75.42" y1="68.77" x2="60.66" y2="94.33" stroke="#C9A84C" stroke-width="4.199999999999999" stroke-linecap="round"/><line x1="57.67" y1="58.52" x2="42.91" y2="84.08" stroke="#C9A84C" stroke-width="4.199999999999999" stroke-linecap="round"/>
  <polygon points="100.00,84.00 113.86,92.00 113.86,108.00 100.00,116.00 86.14,108.00 86.14,92.00" fill="#C9A84C"/>

</svg>