<svg xmlns="http://www.w3.org/2000/svg" viewBox="0 0 200 200" width="200" height="200">
  <rect width="200" height="200" fill="#0A0A09"/>
  
  <!-- outer flame -->
  <path d="M 100 178 C 60 178 34 148 34 116 C 34 84 58 72 70 58 C 76 50 74 36 80 28 C 88 44 84 58 94 66 C 98 52 106 40 118 28 C 120 50 108 68 116 82 C 128 70 136 56 148 50 C 148 72 132 88 138 106 C 144 84 158 76 166 66 C 168 92 158 116 148 132 C 154 128 160 120 162 112 C 164 136 154 158 138 168 C 130 174 116 178 100 178 Z" fill="#C9A84C"/>
  <!-- inner dark flame -->
  <path d="M 100 162 C 76 162 60 144 60 124 C 60 104 76 94 88 80 C 92 110 104 108 108 92 C 116 104 114 122 120 130 C 130 118 130 104 136 96 C 140 116 132 138 120 148 C 114 154 108 160 100 162 Z" fill="#0A0A09"/>

</svg>