<svg xmlns="http://www.w3.org/2000/svg" viewBox="0 0 200 200" width="200" height="200">
  <rect width="200" height="200" fill="#0A0A09"/>
  
  <path d="M 100.00 180.00 L 108.73 179.12 L 117.28 177.29 L 125.52 174.55 L 133.38 170.94 L 140.75 166.51 L 147.56 161.32 L 153.72 155.44 L 159.18 148.95 L 163.86 141.95 L 167.72 134.50 L 170.72 126.72 L 172.84 118.70 L 174.05 110.54 L 174.36 102.34 L 173.77 94.19 L 172.30 86.21 L 169.96 78.48 L 166.81 71.09 L 162.89 64.13 L 158.25 57.68 L 152.96 51.81 L 147.09 46.59 L 140.71 42.08 L 133.92 38.31 L 126.79 35.33 L 119.42 33.16 L 111.90 31.83 L 104.32 31.34 L 96.78 31.68 L 89.36 32.84 L 82.16 34.80 L 75.26 37.52 L 68.74 40.96 L 62.68 45.08 L 57.14 49.81 L 52.18 55.09 L 47.86 60.85 L 44.22 67.01 L 41.31 73.50 L 39.13 80.22 L 37.72 87.10 L 37.08 94.05 L 37.21 100.99 L 38.09 107.82 L 39.71 114.47 L 42.04 120.87 L 45.04 126.92 L 48.66 132.58 L 52.86 137.76 L 57.57 142.43 L 62.74 146.51 L 68.28 149.98 L 74.13 152.80 L 80.22 154.95 L 86.46 156.40 L 92.78 157.15 L 99.10 157.19 L 105.35 156.55 L 111.44 155.23 L 117.30 153.26 L 122.88 150.67 L 128.10 147.51 L 132.90 143.82 L 137.24 139.66 L 141.06 135.07 L 144.33 130.13 L 147.02 124.89 L 149.09 119.44 L 150.54 113.83 L 151.36 108.13 L 151.54 102.43 L 151.10 96.79 L 150.04 91.27 L 148.40 85.94 L 146.19 80.87 L 143.46 76.11 L 140.25 71.71 L 136.61 67.73 L 132.57 64.20 L 128.21 61.17 L 123.58 58.65 L 118.75 56.68 L 113.76 55.27 L 108.69 54.42 L 103.61 54.14 L 98.57 54.42 L 93.63 55.25 L 88.86 56.61 L 84.31 58.47 L 80.02 60.80 L 76.06 63.56 L 72.46 66.71 L 69.26 70.21 L 66.50 74.01 L 64.19 78.06 L 62.36 82.29 L 61.02 86.65 L 60.18 91.10 L 59.84 95.57 L 60.00 100.00 L 60.64 104.35 L 61.74 108.55 L 63.29 112.57 L 65.25 116.35 L 67.60 119.85 L 70.29 123.05 L 73.29 125.89 L 76.54 128.35 L 80.02 130.42 L 83.66 132.08 L 87.42 133.30 L 91.25 134.09 L 95.10 134.45 L 98.92 134.38 L 102.67 133.90 L 106.30 133.00 L 109.76 131.73 L 113.03 130.10 L 116.05 128.14 L 118.81 125.89 L 121.27 123.37 L 123.40 120.63 L 125.20 117.71 L 126.64 114.65 L 127.72 111.48 L 128.42 108.26 L 128.77 105.02 L 128.74 101.81 L 128.37 98.66 L 127.66 95.62 L 126.62 92.72 L 125.29 89.99 L 123.68 87.46 L 121.83 85.16 L 119.77 83.11 L 117.52 81.34 L 115.13 79.85 L 112.62 78.65 L 110.04 77.76 L 107.42 77.17 L 104.79 76.89 L 102.18 76.90 L 99.64 77.20 L 97.19 77.78 L 94.86 78.61 L 92.68 79.68 L 90.67 80.96 L 88.85 82.44 L 87.25 84.08 L 85.86 85.86 L 84.70 87.75 L 83.79 89.71 L 83.12 91.73 L 82.69 93.77 L 82.50 95.80 L 82.54 97.79 L 82.80 99.73 L 83.27 101.58 L 83.94 103.33 L 84.78 104.94 L 85.78 106.42 L 86.92 107.74 L 88.16 108.89 L 89.50 109.86 L 90.91 110.65 L 92.36 111.25 L 93.82 111.67 L 95.29 111.90 L 96.73 111.96 L 98.12 111.85 L 99.45 111.59 L 100.70 111.18 L 101.86 110.64 L 102.90 109.99 L 103.83 109.24 L 104.62 108.41 L 105.29 107.53 L 105.82 106.60 L 106.21 105.65 L 106.47 104.70 L 106.60 103.77 L 106.61 102.86 L 106.50 102.00 L 106.29 101.20 L 105.98 100.47 L 105.60 99.82 L 105.15 99.27 L 104.65 98.81 L 104.12 98.44 L 103.56 98.18 L 103.01 98.02 L 102.47 97.96 L 101.95 97.99 L 101.47 98.10 L 101.04 98.29 L 100.68 98.55 L 100.39 98.86 L 100.17 99.22 L 100.04 99.60 L 100.00 100.00" stroke="#C9A84C" stroke-width="4" fill="none" stroke-linecap="round"/>
  <circle cx="100" cy="100" r="8" fill="#C9A84C"/>

</svg>